<?xml version="1.0" encoding="UTF-8"?>
<svg xmlns="http://www.w3.org/2000/svg" xmlns:xlink="http://www.w3.org/1999/xlink" width="2560" height="1440" viewBox="0 0 2560 1440">
<rect x="-256" y="-144" width="3072" height="1728" fill="rgb(90%, 90%, 90%)" fill-opacity="1"/>
<path fill-rule="nonzero" fill="rgb(38.431373%, 11.372549%, 20.392157%)" fill-opacity="0.5" d="M 474.839844 724.355469 C 461.417969 692.984375 478.117188 655.753906 512.136719 641.199219 C 546.160156 626.644531 584.617188 640.273438 598.039062 671.644531 C 611.460938 703.015625 594.761719 740.246094 560.742188 754.800781 C 526.722656 769.355469 488.261719 755.726562 474.839844 724.355469 "/>
<path fill-rule="nonzero" fill="rgb(16.078431%, 51.372549%, 73.333333%)" fill-opacity="0.5" d="M 1679.355469 1024.179688 C 1743.453125 982.535156 1825.90625 995.707031 1863.519531 1053.597656 C 1901.128906 1111.488281 1879.65625 1192.175781 1815.554688 1233.820312 C 1751.457031 1275.464844 1669.003906 1262.292969 1631.394531 1204.402344 C 1593.785156 1146.511719 1615.257812 1065.824219 1679.355469 1024.179688 "/>
<path fill-rule="nonzero" fill="rgb(13.333333%, 58.039216%, 32.54902%)" fill-opacity="0.5" d="M 1547.902344 457.417969 C 1593.664062 396.375 1669.632812 376.027344 1717.578125 411.96875 C 1765.523438 447.914062 1767.292969 526.535156 1721.53125 587.582031 C 1675.769531 648.625 1599.804688 668.972656 1551.859375 633.03125 C 1503.914062 597.085938 1502.140625 518.464844 1547.902344 457.417969 "/>
<path fill-rule="nonzero" fill="rgb(45.098039%, 48.627451%, 48.235294%)" fill-opacity="0.5" d="M 130.316406 1252.753906 C 187.847656 1263.988281 226.378906 1314.625 216.375 1365.847656 C 206.371094 1417.070312 151.621094 1449.484375 94.085938 1438.246094 C 36.554688 1427.011719 -1.976562 1376.375 8.027344 1325.152344 C 18.03125 1273.929688 72.78125 1241.515625 130.316406 1252.753906 "/>
<path fill-rule="nonzero" fill="rgb(40.784314%, 36.862745%, 28.235294%)" fill-opacity="0.5" d="M 925.855469 305.671875 C 961.296875 258.765625 1032.179688 252.59375 1084.175781 291.878906 C 1136.167969 331.167969 1149.585938 401.042969 1114.144531 447.949219 C 1078.703125 494.851562 1007.820312 501.027344 955.824219 461.738281 C 903.832031 422.449219 890.414062 352.574219 925.855469 305.671875 "/>
<path fill-rule="nonzero" fill="rgb(35.686275%, 25.882353%, 22.745098%)" fill-opacity="0.5" d="M 2018.199219 257.152344 C 2055.066406 259.4375 2082.78125 296.371094 2080.09375 339.640625 C 2077.410156 382.914062 2045.34375 416.136719 2008.476562 413.847656 C 1971.605469 411.5625 1943.894531 374.628906 1946.578125 331.359375 C 1949.261719 288.085938 1981.328125 254.863281 2018.199219 257.152344 "/>
<path fill-rule="nonzero" fill="rgb(19.215686%, 5.882353%, 10.588235%)" fill-opacity="0.5" d="M 2180.722656 964.394531 C 2167.191406 936.320312 2184.449219 899.953125 2219.273438 883.164062 C 2254.101562 866.378906 2293.300781 875.527344 2306.835938 903.605469 C 2320.371094 931.679688 2303.109375 968.046875 2268.285156 984.835938 C 2233.460938 1001.621094 2194.257812 992.472656 2180.722656 964.394531 "/>
<path fill-rule="nonzero" fill="rgb(39.607843%, 16.862745%, 10.980392%)" fill-opacity="0.5" d="M 713.511719 143.363281 C 736.226562 106.875 783.144531 95.046875 818.308594 116.9375 C 853.472656 138.828125 863.566406 186.152344 840.851562 222.636719 C 818.136719 259.125 771.214844 270.953125 736.054688 249.0625 C 700.890625 227.171875 690.796875 179.847656 713.511719 143.363281 "/>
<path fill-rule="nonzero" fill="rgb(5.882353%, 7.843137%, 13.72549%)" fill-opacity="0.5" d="M 409.296875 255.382812 C 381.6875 262.929688 350.570312 237.085938 339.796875 197.664062 C 329.023438 158.238281 342.671875 120.164062 370.28125 112.617188 C 397.890625 105.070312 429.007812 130.914062 439.78125 170.335938 C 450.554688 209.761719 436.90625 247.835938 409.296875 255.382812 "/>
<path fill-rule="nonzero" fill="rgb(75.294118%, 17.254902%, 21.960784%)" fill-opacity="0.5" d="M 1794.136719 976.417969 C 1761.574219 934.875 1760.546875 881.308594 1791.84375 856.78125 C 1823.140625 832.25 1874.910156 846.039062 1907.472656 887.582031 C 1940.035156 929.125 1941.058594 982.691406 1909.765625 1007.21875 C 1878.46875 1031.75 1826.699219 1017.960938 1794.136719 976.417969 "/>
<path fill-rule="nonzero" fill="rgb(49.411765%, 12.54902%, 39.607843%)" fill-opacity="0.5" d="M 212.734375 1277.882812 C 223.953125 1245.574219 269.210938 1231.945312 313.816406 1247.4375 C 358.425781 1262.929688 385.488281 1301.679688 374.265625 1333.988281 C 363.046875 1366.292969 317.789062 1379.925781 273.183594 1364.429688 C 228.574219 1348.9375 201.511719 1310.1875 212.734375 1277.882812 "/>
<path fill-rule="nonzero" fill="rgb(50.588235%, 23.529412%, 52.156863%)" fill-opacity="0.5" d="M 2447.765625 253.648438 C 2417.757812 244.878906 2403.921875 201.886719 2416.859375 157.621094 C 2429.796875 113.355469 2464.609375 84.582031 2494.613281 93.351562 C 2524.617188 102.121094 2538.457031 145.113281 2525.519531 189.378906 C 2512.582031 233.644531 2477.769531 262.417969 2447.765625 253.648438 "/>
<path fill-rule="nonzero" fill="rgb(38.823529%, 2.745098%, 10.980392%)" fill-opacity="0.5" d="M 423.339844 1153.832031 C 366.214844 1111.324219 347.167969 1040.230469 380.796875 995.039062 C 414.425781 949.84375 487.996094 947.664062 545.121094 990.167969 C 602.242188 1032.675781 621.289062 1103.769531 587.660156 1148.960938 C 554.03125 1194.15625 480.460938 1196.335938 423.339844 1153.832031 "/>
<path fill-rule="nonzero" fill="rgb(29.411765%, 11.764706%, 18.431373%)" fill-opacity="0.5" d="M 205.40625 403.253906 C 277.648438 392.472656 343.78125 434.433594 353.113281 496.980469 C 362.449219 559.523438 311.449219 618.964844 239.203125 629.746094 C 166.960938 640.527344 100.828125 598.566406 91.496094 536.019531 C 82.160156 473.476562 133.160156 414.035156 205.40625 403.253906 "/>
<path fill-rule="nonzero" fill="rgb(36.470588%, 24.705882%, 31.764706%)" fill-opacity="0.5" d="M 1291.523438 1.007812 C 1323.667969 -5.289062 1354.375 13.328125 1360.109375 42.597656 C 1365.84375 71.863281 1344.433594 100.695312 1312.289062 106.992188 C 1280.140625 113.289062 1249.433594 94.671875 1243.703125 65.402344 C 1237.96875 36.136719 1259.378906 7.304688 1291.523438 1.007812 "/>
<path fill-rule="nonzero" fill="rgb(13.333333%, 12.54902%, 18.039216%)" fill-opacity="0.5" d="M 944.640625 966.03125 C 901.476562 950.476562 876.652344 909.644531 889.199219 874.832031 C 901.746094 840.023438 946.90625 824.414062 990.070312 839.96875 C 1033.238281 855.523438 1058.058594 896.355469 1045.511719 931.167969 C 1032.964844 965.976562 987.804688 981.585938 944.640625 966.03125 "/>
<path fill-rule="evenodd" fill="rgb(30.196078%, 30.196078%, 30.196078%)" fill-opacity="1" d="M 1238.03125 562.464844 C 1234.589844 562.457031 1231.730469 563.160156 1230.628906 563.546875 L 1229.492188 569.6875 C 1229.488281 569.707031 1235.148438 568.175781 1237.644531 568.265625 C 1241.773438 568.414062 1242.152344 569.84375 1242.082031 571.773438 C 1242.152344 571.886719 1241.015625 570.03125 1237.441406 569.96875 C 1232.9375 569.890625 1226.578125 571.5625 1226.585938 578.363281 C 1226.464844 586.011719 1232.300781 588.265625 1236.273438 588.308594 C 1239.847656 588.242188 1241.527344 586.953125 1242.445312 586.261719 C 1243.648438 585.003906 1245.027344 583.734375 1246.347656 582.210938 C 1245.101562 584.476562 1244.019531 586.039062 1242.894531 587.238281 L 1242.894531 588.246094 L 1248.328125 587.332031 L 1248.367188 572.566406 C 1248.308594 570.476562 1249.566406 562.480469 1238.03125 562.464844 Z M 1237.25 575.316406 C 1239.5 575.347656 1242.082031 576.457031 1242.085938 579.128906 C 1242.097656 581.5625 1239.039062 582.863281 1237.054688 582.84375 C 1235.066406 582.824219 1232.429688 581.285156 1232.417969 578.914062 C 1232.457031 576.796875 1234.902344 575.261719 1237.25 575.316406 Z M 1237.25 575.316406 "/>
<path fill-rule="evenodd" fill="rgb(30.196078%, 30.196078%, 30.196078%)" fill-opacity="1" d="M 1251.945312 563.824219 L 1251.910156 588.277344 L 1258.242188 587.058594 L 1258.25 573.195312 C 1258.253906 571.128906 1261.199219 568.71875 1264.898438 568.757812 C 1265.6875 567.335938 1267.160156 563.703125 1267.519531 562.878906 C 1259.253906 562.859375 1259.148438 565.257812 1257.714844 566.433594 C 1257.699219 564.183594 1257.707031 562.835938 1257.707031 562.835938 Z M 1251.945312 563.824219 "/>
<path fill-rule="evenodd" fill="rgb(30.196078%, 30.196078%, 30.196078%)" fill-opacity="1" d="M 1287.5625 567.035156 C 1287.5 567.007812 1284.261719 563.246094 1277.75 563.214844 C 1271.648438 563.113281 1264.808594 565.480469 1264.699219 575.707031 C 1264.75 584.703125 1271.269531 588.21875 1277.785156 588.285156 C 1284.753906 588.359375 1287.527344 583.925781 1287.695312 583.816406 C 1286.863281 583.09375 1283.746094 580.007812 1283.746094 580.007812 C 1283.746094 580.007812 1281.804688 582.777344 1278.027344 582.8125 C 1274.253906 582.851562 1270.964844 579.894531 1270.921875 575.773438 C 1270.871094 571.652344 1273.941406 569.417969 1278.054688 569.238281 C 1281.621094 569.238281 1283.671875 571.539062 1283.671875 571.539062 Z M 1287.5625 567.035156 "/>
<path fill-rule="evenodd" fill="rgb(30.196078%, 30.196078%, 30.196078%)" fill-opacity="1" d="M 1295.535156 555.265625 L 1289.558594 556.671875 L 1289.601562 588.523438 L 1295.488281 587.460938 L 1295.558594 572.472656 C 1295.570312 570.898438 1297.828125 568.484375 1301.605469 568.5625 C 1305.214844 568.601562 1306.019531 570.96875 1306.011719 571.265625 L 1306.117188 588.621094 L 1311.921875 587.59375 L 1311.945312 569.195312 C 1311.980469 567.421875 1308.066406 563.683594 1301.769531 563.65625 C 1298.777344 563.660156 1297.117188 564.339844 1296.277344 564.839844 C 1294.835938 565.957031 1293.183594 567.019531 1291.566406 568.382812 C 1293.0625 566.460938 1294.320312 565.128906 1295.550781 564.140625 Z M 1295.535156 555.265625 "/>
<path fill-rule="evenodd" fill="rgb(9.019608%, 57.647059%, 81.960784%)" fill-opacity="1" d="M 1316.984375 556.09375 L 1319.679688 555.417969 L 1319.808594 587.53125 L 1317.070312 587.996094 Z M 1316.984375 556.09375 "/>
<path fill-rule="evenodd" fill="rgb(9.019608%, 57.647059%, 81.960784%)" fill-opacity="1" d="M 1324.316406 565.679688 L 1326.675781 564.625 L 1326.695312 587.652344 L 1324.417969 588.121094 Z M 1323.753906 557.375 L 1325.65625 555.820312 L 1327.238281 557.582031 L 1325.335938 559.175781 Z M 1323.753906 557.375 "/>
<path fill-rule="evenodd" fill="rgb(9.019608%, 57.647059%, 81.960784%)" fill-opacity="1" d="M 1331.117188 565.257812 L 1333.816406 564.707031 L 1333.828125 569.523438 C 1333.828125 569.730469 1335.304688 564.144531 1342.445312 564.269531 C 1349.375 564.308594 1350.503906 569.671875 1350.464844 570.875 L 1350.550781 587.800781 L 1348.191406 588.3125 L 1348.179688 571.59375 C 1348.207031 571.105469 1347.097656 566.976562 1342.203125 566.960938 C 1337.308594 566.945312 1333.914062 570.519531 1333.921875 572.800781 L 1333.960938 587.527344 L 1331.21875 588.242188 Z M 1331.117188 565.257812 "/>
<path fill-rule="evenodd" fill="rgb(9.019608%, 57.647059%, 81.960784%)" fill-opacity="1" d="M 1374.066406 587.921875 L 1371.371094 588.472656 L 1371.359375 583.660156 C 1371.359375 583.453125 1369.875 589.039062 1362.742188 588.914062 C 1355.8125 588.875 1354.679688 583.507812 1354.714844 582.308594 L 1354.628906 565.382812 L 1357.492188 564.800781 L 1357.539062 581.523438 C 1357.539062 581.980469 1358.085938 586.207031 1362.984375 586.222656 C 1367.875 586.234375 1371.308594 583.269531 1371.332031 578.8125 L 1371.296875 565.621094 L 1373.960938 564.9375 Z M 1374.066406 587.921875 "/>
<path fill-rule="evenodd" fill="rgb(9.019608%, 57.647059%, 81.960784%)" fill-opacity="1" d="M 1379.351562 565.070312 L 1377.460938 566.550781 L 1384.707031 576.027344 L 1376.976562 586.984375 L 1378.984375 588.472656 L 1386.25 578.300781 L 1393.746094 588.714844 L 1395.601562 587.234375 L 1387.566406 576.097656 L 1393.976562 567.097656 L 1392.007812 565.429688 L 1386.164062 573.761719 Z M 1379.351562 565.070312 "/>
<path fill-rule="evenodd" fill="rgb(9.019608%, 57.647059%, 81.960784%)" fill-opacity="1" d="M 1197.230469 540.585938 C 1194.078125 548.316406 1192.171875 553.371094 1188.664062 560.871094 C 1190.816406 563.15625 1193.457031 565.8125 1197.75 568.8125 C 1193.136719 566.914062 1189.988281 565.007812 1187.640625 563.03125 C 1183.148438 572.40625 1176.109375 585.757812 1161.824219 611.421875 C 1173.050781 604.941406 1181.753906 600.945312 1189.863281 599.421875 C 1189.515625 597.921875 1189.316406 596.304688 1189.328125 594.609375 L 1189.34375 594.25 C 1189.523438 587.058594 1193.261719 581.53125 1197.695312 581.90625 C 1202.128906 582.28125 1205.574219 588.417969 1205.394531 595.609375 C 1205.359375 596.964844 1205.207031 598.265625 1204.941406 599.472656 C 1212.964844 601.042969 1221.574219 605.03125 1232.648438 611.421875 C 1230.460938 607.402344 1228.515625 603.777344 1226.652344 600.328125 C 1223.71875 598.054688 1220.664062 595.097656 1214.425781 591.894531 C 1218.710938 593.011719 1221.785156 594.296875 1224.175781 595.730469 C 1205.25 560.496094 1203.71875 555.8125 1197.230469 540.585938 Z M 1197.230469 540.585938 "/>
<path fill-rule="nonzero" fill="rgb(9.019608%, 57.647059%, 81.960784%)" fill-opacity="1" d="M 1399.132812 586.507812 L 1399.132812 584.523438 L 1398.390625 584.523438 L 1398.390625 584.257812 L 1400.175781 584.257812 L 1400.175781 584.523438 L 1399.429688 584.523438 L 1399.429688 586.507812 L 1399.132812 586.507812 "/>
<path fill-rule="nonzero" fill="rgb(9.019608%, 57.647059%, 81.960784%)" fill-opacity="1" d="M 1400.480469 586.507812 L 1400.480469 584.257812 L 1400.929688 584.257812 L 1401.464844 585.851562 C 1401.511719 586 1401.546875 586.109375 1401.570312 586.183594 C 1401.59375 586.101562 1401.632812 585.980469 1401.6875 585.824219 L 1402.226562 584.257812 L 1402.628906 584.257812 L 1402.628906 586.507812 L 1402.34375 586.507812 L 1402.34375 584.625 L 1401.6875 586.507812 L 1401.421875 586.507812 L 1400.769531 584.59375 L 1400.769531 586.507812 L 1400.480469 586.507812 "/>
<path fill-rule="nonzero" fill="rgb(9.019608%, 57.647059%, 81.960784%)" fill-opacity="1" d="M 1232.996094 605.101562 L 1232.996094 603.15625 L 1232.269531 603.15625 L 1232.269531 602.898438 L 1234.019531 602.898438 L 1234.019531 603.15625 L 1233.289062 603.15625 L 1233.289062 605.101562 L 1232.996094 605.101562 "/>
<path fill-rule="nonzero" fill="rgb(9.019608%, 57.647059%, 81.960784%)" fill-opacity="1" d="M 1234.320312 605.101562 L 1234.320312 602.898438 L 1234.757812 602.898438 L 1235.277344 604.457031 C 1235.328125 604.601562 1235.363281 604.710938 1235.382812 604.785156 C 1235.410156 604.703125 1235.449219 604.585938 1235.5 604.429688 L 1236.027344 602.898438 L 1236.421875 602.898438 L 1236.421875 605.101562 L 1236.140625 605.101562 L 1236.140625 603.257812 L 1235.5 605.101562 L 1235.234375 605.101562 L 1234.601562 603.222656 L 1234.601562 605.101562 L 1234.320312 605.101562 "/>
</svg>
